<?xml version="1.0" encoding="UTF-8" standalone="no"?>
<!DOCTYPE svg PUBLIC "-//W3C//DTD SVG 1.1//EN" "http://www.w3.org/Graphics/SVG/1.1/DTD/svg11.dtd">
<svg version="1.1" xmlns="http://www.w3.org/2000/svg" xmlns:xlink="http://www.w3.org/1999/xlink" preserveAspectRatio="xMidYMid meet" viewBox="0 0 470 470" width="470" height="470" ><defs><path d="M194.31 3.69L201.35 4.41L208.31 5.4L215.17 6.67L221.94 8.2L228.61 9.99L235.18 12.04L241.62 14.33L247.96 16.87L254.16 19.64L260.24 22.65L266.18 25.88L271.98 29.33L277.64 33L283.14 36.87L288.48 40.95L293.66 45.23L298.67 49.7L303.51 54.35L308.16 59.19L312.63 64.2L316.91 69.38L320.99 74.72L324.86 80.23L328.53 85.88L331.98 91.68L335.22 97.62L338.22 103.7L341 109.91L343.53 116.24L345.83 122.69L347.87 129.25L349.66 135.92L351.19 142.69L352.46 149.55L353.45 156.51L354.17 163.55L354.6 170.67L354.75 177.86L354.71 181.1L354.6 184.36L354.41 187.63L354.15 190.93L353.82 194.24L353.41 197.57L352.93 200.92L352.37 204.28L351.74 207.66L351.04 211.05L350.27 214.46L349.42 217.88L348.5 221.32L347.51 224.77L346.44 228.24L345.31 231.71L344.1 235.2L342.82 238.7L341.47 242.21L340.05 245.73L338.56 249.27L337 252.81L335.36 256.36L333.66 259.92L331.89 263.48L330.04 267.06L328.13 270.64L326.15 274.23L324.1 277.82L321.98 281.42L319.79 285.03L317.53 288.64L315.21 292.25L312.81 295.87L310.35 299.49L307.82 303.11L305.22 306.74L302.56 310.36L299.83 313.99L297.03 317.62L294.8 320.45L292.54 323.27L290.24 326.09L287.9 328.9L285.53 331.71L283.13 334.51L280.69 337.3L278.21 340.08L275.71 342.86L273.18 345.62L270.61 348.37L268.02 351.11L265.4 353.84L262.75 356.55L260.08 359.25L257.38 361.94L254.66 364.6L251.92 367.25L249.15 369.88L246.36 372.5L243.55 375.09L240.72 377.66L237.88 380.21L235.01 382.74L232.13 385.25L229.24 387.73L226.33 390.18L223.4 392.61L220.46 395.02L217.51 397.39L214.55 399.74L211.58 402.06L208.6 404.35L205.62 406.6L202.62 408.83L199.62 411.02L196.61 413.18L193.6 415.3L190.59 417.39L187.57 419.45L175.26 439.57L202.95 439.57L203.38 439.58L203.79 439.61L204.2 439.65L204.61 439.71L205.01 439.78L205.41 439.87L205.8 439.98L206.18 440.1L206.56 440.23L206.93 440.38L207.29 440.54L207.65 440.71L208 440.9L208.33 441.1L208.66 441.32L208.99 441.54L209.3 441.78L209.6 442.03L209.89 442.29L210.18 442.57L210.45 442.85L210.71 443.14L210.96 443.44L211.2 443.76L211.42 444.08L211.64 444.41L211.84 444.75L212.03 445.09L212.2 445.45L212.36 445.81L212.51 446.18L212.65 446.56L212.77 446.94L212.87 447.33L212.96 447.73L213.03 448.13L213.09 448.54L213.13 448.95L213.16 449.37L213.17 449.79L213.16 450.21L213.13 450.62L213.09 451.04L213.03 451.44L212.96 451.85L212.87 452.24L212.77 452.63L212.65 453.02L212.51 453.39L212.36 453.76L212.2 454.13L212.03 454.48L211.84 454.83L211.64 455.17L211.42 455.5L211.2 455.82L210.96 456.13L210.71 456.43L210.45 456.73L210.18 457.01L209.89 457.28L209.6 457.54L209.3 457.79L208.99 458.03L208.66 458.26L208.33 458.47L208 458.67L207.65 458.86L207.29 459.04L206.93 459.2L206.56 459.35L206.18 459.48L205.8 459.6L205.41 459.7L205.01 459.79L204.61 459.87L204.2 459.92L203.79 459.97L203.38 459.99L202.95 460L157.05 460L156.77 460L156.5 459.99L156.22 459.97L155.95 459.94L155.68 459.91L155.41 459.87L155.14 459.82L154.88 459.77L154.61 459.71L154.35 459.64L154.09 459.56L153.84 459.48L153.58 459.39L153.33 459.3L153.08 459.2L152.84 459.09L152.59 458.98L152.35 458.86L152.12 458.73L151.89 458.6L151.66 458.46L151.43 458.32L151.21 458.17L150.99 458.01L150.78 457.85L150.57 457.68L150.36 457.51L150.16 457.33L149.97 457.15L149.77 456.96L149.59 456.76L149.4 456.56L149.23 456.36L149.06 456.15L148.89 455.93L148.73 455.71L148.57 455.49L148.42 455.26L148.28 455.02L148.14 454.78L148.01 454.54L147.88 454.29L147.76 454.05L147.65 453.79L147.55 453.54L147.45 453.29L147.36 453.03L147.28 452.77L147.2 452.51L147.14 452.25L147.07 451.99L147.02 451.73L146.97 451.46L146.93 451.2L146.9 450.93L146.87 450.66L146.85 450.4L146.84 450.13L146.83 449.86L146.84 449.59L146.84 449.33L146.86 449.06L146.88 448.79L146.91 448.53L146.95 448.26L146.99 448L147.04 447.73L147.1 447.47L147.17 447.21L147.24 446.95L147.32 446.69L147.4 446.43L147.49 446.18L147.59 445.93L147.7 445.68L147.81 445.43L147.93 445.18L148.06 444.94L148.19 444.7L148.33 444.46L166.23 415.2L163.37 413.18L160.52 411.13L157.67 409.06L154.83 406.95L151.99 404.81L149.16 402.65L146.34 400.46L143.53 398.24L140.73 396L137.94 393.73L135.16 391.43L132.39 389.12L129.64 386.78L126.89 384.41L124.17 382.03L121.45 379.63L118.76 377.2L116.08 374.76L113.42 372.3L110.77 369.82L108.15 367.32L105.54 364.81L102.96 362.28L100.4 359.73L97.86 357.18L95.34 354.61L92.85 352.02L90.38 349.43L87.93 346.82L85.52 344.2L83.13 341.58L80.77 338.94L78.43 336.3L76.13 333.65L73.86 330.99L71.61 328.32L69.4 325.65L67.22 322.98L65.08 320.3L62.97 317.62L60.17 313.99L57.44 310.36L54.77 306.74L52.18 303.11L49.65 299.49L47.19 295.87L44.79 292.25L42.47 288.64L40.21 285.03L38.02 281.42L35.9 277.82L33.85 274.23L31.87 270.64L29.96 267.06L28.11 263.48L26.34 259.92L24.64 256.36L23 252.81L21.44 249.27L19.95 245.73L18.53 242.21L17.18 238.7L15.9 235.2L14.69 231.71L13.56 228.24L12.49 224.77L11.5 221.32L10.58 217.88L9.73 214.46L8.96 211.05L8.26 207.66L7.63 204.28L7.07 200.92L6.59 197.57L6.18 194.24L5.85 190.93L5.59 187.63L5.4 184.36L5.29 181.1L5.25 177.86L5.4 170.67L5.83 163.55L6.55 156.51L7.54 149.55L8.81 142.69L10.34 135.92L12.13 129.25L14.17 122.69L16.47 116.24L19 109.91L21.78 103.7L24.78 97.62L28.02 91.68L31.47 85.88L35.14 80.23L39.01 74.72L43.09 69.38L47.37 64.2L51.84 59.19L56.49 54.35L61.33 49.7L66.34 45.23L71.52 40.95L76.86 36.87L82.36 33L88.02 29.33L93.82 25.88L99.76 22.65L105.84 19.64L112.04 16.87L118.38 14.33L124.82 12.04L131.39 9.99L138.06 8.2L144.83 6.67L151.69 5.4L158.65 4.41L165.69 3.69L172.81 3.26L180 3.11L187.19 3.26L194.31 3.69ZM167.36 24.05L161.14 24.68L155 25.56L148.94 26.68L142.96 28.03L137.07 29.61L131.27 31.42L125.58 33.44L119.99 35.68L114.51 38.13L109.14 40.79L103.89 43.64L98.77 46.69L93.78 49.93L88.92 53.35L84.2 56.95L79.62 60.73L75.2 64.68L70.93 68.79L66.82 73.06L62.87 77.48L59.09 82.06L55.49 86.78L52.07 91.64L48.83 96.63L45.78 101.75L42.93 107L40.27 112.37L37.82 117.85L35.58 123.44L33.56 129.14L31.75 134.93L30.17 140.82L28.82 146.8L27.7 152.86L26.82 159.01L26.19 165.22L25.8 171.51L25.68 177.86L25.71 180.76L25.81 183.67L25.99 186.6L26.23 189.56L26.54 192.53L26.92 195.52L27.36 198.53L27.88 201.55L28.46 204.6L29.11 207.66L29.82 210.74L30.61 213.83L31.46 216.94L32.38 220.06L33.36 223.2L34.41 226.35L35.53 229.51L36.71 232.69L37.96 235.88L39.27 239.09L40.65 242.3L42.1 245.53L43.61 248.77L45.19 252.02L46.83 255.27L48.53 258.54L50.3 261.82L52.13 265.1L54.03 268.4L55.99 271.7L58.02 275.01L60.11 278.33L62.26 281.65L64.47 284.98L66.75 288.31L69.09 291.65L71.49 295L73.96 298.35L76.48 301.7L79.07 305.06L81.13 307.67L83.22 310.28L85.35 312.89L87.51 315.49L89.7 318.09L91.92 320.68L94.17 323.27L96.45 325.84L98.75 328.41L101.09 330.97L103.45 333.52L105.84 336.07L108.25 338.59L110.69 341.11L113.15 343.61L115.64 346.11L118.14 348.58L120.67 351.04L123.22 353.49L125.79 355.92L128.37 358.33L130.98 360.73L133.6 363.1L136.24 365.46L138.89 367.79L141.56 370.11L144.24 372.4L146.93 374.67L149.64 376.92L152.36 379.14L155.09 381.34L157.83 383.52L160.58 385.67L163.33 387.79L166.1 389.88L168.87 391.95L171.64 393.98L174.42 395.99L177.21 397.96L180 399.91L182.79 397.96L185.58 395.99L188.36 393.98L191.13 391.95L193.9 389.88L196.67 387.79L199.42 385.67L202.17 383.52L204.91 381.34L207.64 379.14L210.36 376.92L213.07 374.67L215.76 372.4L218.44 370.11L221.11 367.79L223.76 365.46L226.4 363.1L229.02 360.73L231.63 358.33L234.21 355.92L236.78 353.49L239.33 351.04L241.86 348.58L244.36 346.11L246.85 343.61L249.31 341.11L251.75 338.59L254.16 336.06L256.55 333.52L258.91 330.97L261.25 328.41L263.55 325.84L265.83 323.27L268.08 320.68L270.3 318.09L272.49 315.49L274.65 312.89L276.78 310.28L278.87 307.67L280.93 305.06L283.52 301.7L286.04 298.35L288.51 295L290.91 291.65L293.25 288.31L295.53 284.98L297.74 281.65L299.89 278.33L301.98 275.01L304.01 271.7L305.97 268.4L307.87 265.1L309.7 261.82L311.47 258.54L313.17 255.27L314.81 252.02L316.39 248.77L317.9 245.53L319.35 242.3L320.73 239.09L322.04 235.88L323.29 232.69L324.47 229.51L325.59 226.35L326.64 223.2L327.62 220.06L328.54 216.94L329.39 213.83L330.18 210.74L330.89 207.66L331.54 204.6L332.12 201.55L332.64 198.53L333.08 195.52L333.46 192.53L333.77 189.56L334.01 186.6L334.19 183.67L334.29 180.76L334.32 177.86L334.2 171.51L333.81 165.22L333.18 159.01L332.3 152.86L331.18 146.8L329.83 140.82L328.25 134.93L326.44 129.14L324.42 123.44L322.18 117.85L319.73 112.37L317.07 107L314.22 101.75L311.17 96.63L307.93 91.64L304.51 86.78L300.91 82.06L297.13 77.48L293.18 73.06L289.07 68.79L284.8 64.68L280.38 60.73L275.8 56.95L271.08 53.35L266.22 49.93L261.23 46.69L256.11 43.64L250.86 40.79L245.49 38.13L240.01 35.68L234.42 33.44L228.73 31.42L222.93 29.61L217.04 28.03L211.06 26.68L205 25.56L198.86 24.68L192.64 24.05L186.35 23.67L180 23.54L173.65 23.67L167.36 24.05ZM64.49 207.79L64.89 207.82L65.28 207.87L65.67 207.93L66.06 208.01L66.44 208.1L66.82 208.21L67.19 208.33L67.56 208.46L67.93 208.61L68.28 208.77L68.63 208.95L68.98 209.14L69.31 209.34L69.64 209.55L69.96 209.78L70.28 210.02L70.58 210.27L70.87 210.54L71.16 210.81L71.43 211.1L71.69 211.4L71.95 211.71L72.19 212.03L72.41 212.37L72.63 212.71L72.83 213.06L73.02 213.43L73.2 213.8L73.36 214.19L73.51 214.58L74.07 216.13L74.65 217.68L75.24 219.24L75.86 220.8L76.5 222.36L77.16 223.94L77.83 225.51L78.53 227.09L79.25 228.68L79.99 230.27L80.75 231.87L81.53 233.47L82.32 235.07L83.14 236.68L83.98 238.3L84.84 239.91L85.71 241.54L86.61 243.16L87.53 244.8L88.46 246.43L89.42 248.07L90.4 249.71L91.39 251.36L92.41 253.01L93.44 254.67L94.49 256.33L95.57 257.99L96.66 259.66L97.77 261.33L98.91 263L100.06 264.68L101.23 266.36L102.42 268.04L103.63 269.73L104.85 271.42L106.1 273.12L107.37 274.81L108.65 276.52L109.96 278.22L111.28 279.93L111.53 280.26L111.77 280.61L111.99 280.96L112.19 281.31L112.38 281.68L112.56 282.04L112.71 282.42L112.86 282.79L112.98 283.17L113.09 283.55L113.19 283.94L113.27 284.33L113.33 284.72L113.38 285.11L113.42 285.5L113.44 285.89L113.44 286.29L113.43 286.68L113.41 287.07L113.36 287.46L113.31 287.85L113.24 288.23L113.15 288.62L113.05 289L112.94 289.37L112.81 289.74L112.67 290.11L112.51 290.47L112.34 290.83L112.15 291.18L111.95 291.53L111.74 291.86L111.51 292.19L111.26 292.52L111.01 292.83L110.74 293.14L110.45 293.43L110.15 293.72L109.84 293.99L109.51 294.26L109.37 294.37L109.23 294.47L109.09 294.58L108.94 294.67L108.8 294.77L108.65 294.86L108.5 294.96L108.35 295.04L108.2 295.13L108.05 295.21L107.9 295.29L107.75 295.37L107.59 295.44L107.44 295.51L107.28 295.58L107.13 295.65L106.97 295.71L106.81 295.77L106.66 295.83L106.5 295.89L106.34 295.94L106.18 295.99L106.02 296.04L105.86 296.08L105.69 296.12L105.53 296.16L105.37 296.2L105.21 296.23L105.04 296.26L104.88 296.29L104.72 296.31L104.55 296.34L104.39 296.36L104.22 296.37L104.06 296.39L103.89 296.4L103.73 296.41L103.56 296.42L103.4 296.42L103.24 296.42L103.01 296.42L102.78 296.41L102.55 296.4L102.33 296.38L102.1 296.36L101.87 296.33L101.65 296.3L101.42 296.26L101.2 296.22L100.98 296.17L100.76 296.12L100.54 296.06L100.32 296L100.1 295.93L99.88 295.86L99.67 295.78L99.45 295.7L99.24 295.61L99.03 295.52L98.82 295.42L98.62 295.32L98.41 295.22L98.21 295.11L98.01 294.99L97.81 294.87L97.62 294.74L97.42 294.61L97.23 294.48L97.04 294.34L96.86 294.19L96.68 294.04L96.5 293.89L96.32 293.73L96.15 293.57L95.98 293.4L95.81 293.23L95.65 293.05L95.49 292.87L95.33 292.68L95.18 292.49L93.75 290.65L92.35 288.82L90.96 286.99L89.6 285.16L88.26 283.33L86.93 281.5L85.63 279.68L84.35 277.86L83.08 276.04L81.84 274.23L80.62 272.42L79.42 270.61L78.24 268.8L77.08 267L75.94 265.2L74.82 263.4L73.72 261.61L72.65 259.82L71.59 258.03L70.55 256.25L69.54 254.47L68.55 252.69L67.57 250.92L66.62 249.15L65.69 247.39L64.78 245.63L63.89 243.87L63.02 242.11L62.17 240.36L61.35 238.62L60.54 236.88L59.76 235.14L59 233.41L58.26 231.68L57.54 229.95L56.84 228.23L56.16 226.52L55.51 224.81L54.87 223.1L54.26 221.4L54.13 221L54.01 220.6L53.91 220.19L53.83 219.79L53.77 219.39L53.72 218.98L53.69 218.58L53.67 218.18L53.67 217.78L53.69 217.38L53.72 216.99L53.77 216.59L53.83 216.2L53.91 215.81L54 215.43L54.1 215.05L54.22 214.68L54.36 214.31L54.51 213.95L54.67 213.59L54.84 213.24L55.03 212.9L55.24 212.56L55.45 212.23L55.68 211.91L55.92 211.6L56.17 211.3L56.43 211L56.71 210.72L57 210.44L57.3 210.18L57.61 209.93L57.93 209.69L58.26 209.46L58.61 209.24L58.96 209.04L59.33 208.85L59.7 208.67L60.08 208.51L60.48 208.36L60.88 208.23L61.28 208.11L61.68 208.02L62.08 207.93L62.49 207.87L62.89 207.82L63.29 207.79L63.69 207.78L64.09 207.78L64.49 207.79ZM180.84 44L181.25 44.04L181.66 44.1L182.06 44.17L182.45 44.26L182.84 44.36L183.23 44.48L183.61 44.62L183.98 44.77L184.34 44.93L184.69 45.1L185.04 45.29L185.38 45.49L185.71 45.71L186.03 45.93L186.34 46.17L186.65 46.42L186.94 46.68L187.22 46.95L187.49 47.24L187.75 47.53L188 47.83L188.24 48.14L188.47 48.47L188.68 48.8L188.88 49.14L189.07 49.48L189.25 49.84L189.41 50.2L189.56 50.57L189.69 50.95L189.81 51.33L189.92 51.72L190.01 52.12L190.08 52.52L190.14 52.93L190.18 53.34L190.2 53.76L190.21 54.18L190.2 54.6L190.18 55.01L190.14 55.43L190.08 55.83L190.01 56.23L189.92 56.63L189.81 57.02L189.69 57.4L189.56 57.78L189.41 58.15L189.25 58.51L189.07 58.87L188.88 59.22L188.68 59.56L188.47 59.89L188.24 60.21L188 60.52L187.75 60.82L187.49 61.11L187.22 61.4L186.94 61.67L186.65 61.93L186.34 62.18L186.03 62.42L185.71 62.64L185.38 62.86L185.04 63.06L184.69 63.25L184.34 63.42L183.98 63.59L183.61 63.73L183.23 63.87L182.84 63.99L182.45 64.09L182.06 64.18L181.66 64.26L181.25 64.31L180.84 64.35L180.42 64.38L180 64.39L175.33 64.48L170.71 64.77L166.14 65.23L161.62 65.88L157.16 66.7L152.77 67.69L148.44 68.85L144.18 70.18L139.99 71.67L135.88 73.32L131.85 75.12L127.9 77.07L124.04 79.17L120.28 81.41L116.61 83.79L113.03 86.31L109.56 88.96L106.2 91.73L102.95 94.63L99.81 97.66L96.78 100.8L93.88 104.05L91.1 107.41L88.46 110.88L85.94 114.45L83.56 118.13L81.32 121.89L79.22 125.75L77.26 129.7L75.46 133.73L73.82 137.84L72.33 142.02L71 146.28L69.83 150.61L68.84 155.01L68.02 159.47L67.37 163.98L66.9 168.55L66.62 173.18L66.53 177.85L66.52 178.13L66.5 178.41L66.47 178.69L66.42 178.96L66.37 179.24L66.3 179.51L66.21 179.79L66.12 180.06L66.01 180.33L65.89 180.6L65.75 180.87L65.61 181.13L65.45 181.4L65.27 181.66L65.09 181.93L64.89 182.19L64.68 182.45L64.46 182.71L64.22 182.96L63.97 183.22L63.71 183.47L63.44 183.73L63.15 183.98L62.85 184.23L62.54 184.48L62.21 184.73L61.87 184.97L61.52 185.22L61.16 185.46L60.78 185.7L60.39 185.95L59.99 186.19L59.58 186.42L59.15 186.66L58.71 186.9L58.25 187.13L57.79 187.37L57.31 187.6L56.82 187.83L56.31 188.06L55.89 188.05L55.48 188.02L55.06 187.98L54.66 187.92L54.25 187.85L53.86 187.76L53.47 187.66L53.08 187.54L52.71 187.4L52.34 187.25L51.97 187.09L51.62 186.92L51.27 186.73L50.93 186.53L50.6 186.31L50.28 186.09L49.97 185.85L49.67 185.6L49.37 185.34L49.09 185.07L48.82 184.78L48.56 184.49L48.31 184.19L48.07 183.87L47.84 183.55L47.63 183.22L47.43 182.88L47.24 182.54L47.06 182.18L46.9 181.82L46.75 181.45L46.62 181.07L46.5 180.69L46.4 180.3L46.31 179.9L46.23 179.5L46.18 179.09L46.13 178.68L46.11 178.26L46.1 177.84L46.21 172.33L46.55 166.88L47.1 161.48L47.86 156.16L48.83 150.9L50 145.71L51.38 140.6L52.94 135.57L54.7 130.63L56.65 125.78L58.77 121.03L61.08 116.37L63.55 111.82L66.2 107.37L69.01 103.04L71.98 98.83L75.1 94.73L78.38 90.76L81.8 86.92L85.37 83.22L89.08 79.65L92.92 76.23L96.89 72.95L100.98 69.83L105.2 66.86L109.53 64.05L113.97 61.4L118.52 58.93L123.18 56.63L127.94 54.5L132.79 52.56L137.73 50.8L142.76 49.23L147.86 47.86L153.05 46.69L158.31 45.72L163.64 44.96L169.04 44.41L174.49 44.08L180 43.96L180.42 43.97L180.84 44Z" id="atg2ccyBC"></path></defs><g><g><g><use xlink:href="#atg2ccyBC" opacity="1" fill="#5CC4E0" fill-opacity="1"></use><g><use xlink:href="#atg2ccyBC" opacity="1" fill-opacity="0" stroke="#000000" stroke-width="1" stroke-opacity="0"></use></g></g></g></g></svg>